<?xml version="1.0" encoding="iso-8859-1"?>
<!-- Generator: Adobe Illustrator 18.0.0, SVG Export Plug-In . SVG Version: 6.00 Build 0)  -->
<!DOCTYPE svg PUBLIC "-//W3C//DTD SVG 1.0//EN" "http://www.w3.org/TR/2001/REC-SVG-20010904/DTD/svg10.dtd">
<svg version="1.0" id="Layer_1" xmlns="http://www.w3.org/2000/svg" xmlns:xlink="http://www.w3.org/1999/xlink" x="0px" y="0px"
	 viewBox="0 0 1080 1080" style="enable-background:new 0 0 1080 1080;" xml:space="preserve">
<g>
	<path d="M899.296,812.756c-0.542-9.937-3.8-18.41-10.629-25.54c-0.02-0.021-0.041-0.042-0.061-0.063
		c-2.701-2.81-2.593-7.213,0.225-9.906c2.561-2.447,3.664-5.714,3.702-10.334c0.067-8.164,0.064-16.329-0.014-24.492
		c-0.077-8.069-3.248-11.929-11.013-14.427c-12.075-3.884-24.485-3.928-36.972-3.917c-13.776,0.012-26.571,3.092-38.076,10.836
		c-1.759,1.185-2.701,1.865-3.97-0.811c-2.523-5.324-7.165-7.442-13.023-7.392c-12.995,0.11-25.992,0.16-38.987,0.035
		c-5.884-0.057-10.177,2.313-13.268,7.205c-1.315,2.082-3.76,7.666-6.153,3.947c-1.033-1.604-1.057-4.494-1.057-6.279
		c0-4.812,0-9.624,0-14.436c0-9.396,0.002-18.791,0-28.186c-0.001-4.747-1.068-8.405-3.184-11.001l86.777-124.309l78.665,46.611
		l-15.86-217.898l-210.62,90.084l71.052,41.236L605.743,723.29c-1.537,2.458-3.885,4.282-6.62,5.243
		c-0.014,0.005-0.028,0.01-0.042,0.015c-1.56,0.55-2.973,1.664-4.538,0.426c-0.625-0.494-1.276-0.864-1.941-1.164l15.314-25.02
		c0,0-111.355-35.878-139.437-46.473c-21.168-7.986-43.185-12.992-52.748-14.974c-2.228-7.152-5.673-12.87-10.436-17.36
		c0.184-2.425,0.025-4.588,0.006-6.556c-0.073-2.741-0.091-5.46-0.064-8.167c0.044-2.701,0.127-5.39,0.344-8.041
		c0.182-2.661,0.525-5.276,0.947-7.867c0.449-2.583,1.028-5.126,1.756-7.619c0.758-2.482,1.605-4.935,2.676-7.299
		c0.504-1.214,1.077-2.325,1.636-3.448c0.211-0.456,0.498-0.963,0.783-1.469c3.784,0.717,7.669,1.099,11.632,0.97
		c3.093-0.116,6.229-0.541,9.293-1.438c1.53-0.448,3.039-1.008,4.502-1.686c0.739-0.336,1.438-0.706,2.167-1.109l1.106-0.654
		l0.894-0.582c1.457-0.982,2.544-1.877,3.653-2.73c1.083-0.836,2.091-1.577,3.051-2.104c0.227-0.128,0.505-0.269,0.682-0.349
		c0.108-0.045,0.147-0.075,0.308-0.14l0.463-0.181c0.007-0.001,0.11-0.038,0.126-0.042l0.18-0.059l0.383-0.113
		c0.268-0.073,0.549-0.144,0.857-0.211l2.05-0.426c0.379-0.081,0.759-0.167,1.19-0.276l0.594-0.16
		c0.247-0.069,0.429-0.134,0.646-0.202c3.37-1.064,6.338-3.141,8.622-5.529c2.305-2.401,4.04-5.086,5.49-7.789
		c1.451-2.711,2.61-5.464,3.674-8.192l3.032-8.008l6.025-15.957c4.006-10.657,8.057-21.23,12.028-31.965
		c3.93-10.748,7.593-21.775,9.849-33.277c2.239-11.493,3.035-22.862,5.384-33.586c0.279-1.343,0.619-2.667,0.944-3.98l0.524-1.908
		c0.169-0.63,0.409-1.344,0.61-2.012c0.771-2.525,1.789-5.135,2.776-7.841c0.993-2.713,1.983-5.555,2.715-8.592
		c0.174-0.761,0.345-1.521,0.491-2.37c0.085-0.439,0.127-0.765,0.181-1.12l0.078-0.527l0.077-0.675
		c0.182-1.596,0.261-3.188,0.245-4.755c-0.023-3.137-0.362-6.182-0.829-9.115c-0.232-1.468-0.494-2.915-0.768-4.335
		c-0.283-1.437-0.527-2.772-0.884-4.334c-0.695-2.986-1.568-5.742-2.269-8.37c-0.349-1.298-0.669-2.626-0.888-3.799
		c-0.055-0.263-0.112-0.623-0.168-0.977l-0.042-0.263l-0.02-0.17l-0.054-0.448c-0.076-0.596-0.12-1.214-0.151-1.843
		c-0.132-2.512,0.038-5.241,0.173-8.109c0.07-1.437,0.129-2.923,0.135-4.449c0.008-0.766-0.01-1.525-0.04-2.337l-0.069-1.249
		l-0.094-1.062l-0.559-4.464l-0.715-4.357c-0.289-1.44-0.556-2.887-0.865-4.323c-0.336-1.428-0.642-2.865-1.006-4.284
		c-2.864-11.38-7.115-22.276-12.008-32.742c-1.219-2.625-2.484-5.203-3.793-7.796l-1.958-3.823l-0.49-0.946l-0.269-0.506
		l-0.285-0.508c-0.384-0.675-0.753-1.359-1.153-2.024c-3.237-5.312-7.437-9.95-11.981-13.853c-4.54-3.924-9.361-7.258-14.03-10.482
		c-4.635-3.213-9.423-6.545-14.317-9.608c-9.798-6.187-20.186-11.686-31.475-15.508l-2.026-0.666
		c-0.807-0.258-1.452-0.434-2.187-0.654c-1.421-0.44-2.871-0.777-4.309-1.158c-2.896-0.676-5.813-1.263-8.744-1.699
		c-5.863-0.876-11.737-1.248-17.521-1.396c-5.798-0.144-11.471-0.108-17.164-0.129c-5.717-0.01-11.461,0.051-17.223,0.268
		c-11.517,0.431-23.149,1.527-34.609,4.063c-22.943,5.107-44.376,16.012-62.406,30.847c-9.032,7.412-17.257,15.792-24.512,24.943
		c-3.633,4.579-6.992,9.345-10.118,14.309c-0.765,1.25-1.598,2.537-2.286,3.749l-1.077,1.84l-0.562,0.982l-0.529,0.958
		c-0.709,1.275-1.414,2.553-2.076,3.853c-0.684,1.289-1.344,2.589-1.975,3.904c-10.29,20.964-16.135,43.933-17.874,67.103
		c-0.877,11.593-0.709,23.255,0.455,34.815c0.291,2.899,0.629,5.754,1.062,8.669l0.317,2.176l0.348,2.104
		c0.124,0.723,0.214,1.354,0.365,2.152l0.402,2.137c1.074,5.697,2.341,11.344,3.793,16.917c2.879,11.159,6.312,22.088,9.745,32.93
		c1.712,5.423,3.434,10.828,5.072,16.234c1.618,5.368,3.255,10.862,4.567,16.179c2.654,10.75,3.942,21.736,4.239,32.882
		c0.311,11.146-0.19,22.466-0.487,33.866l-0.008,0.29l0.03,0.283l0.767,7.128l0.06,0.559l0.199,0.514
		c0.237,0.613,0.499,1.211,0.754,1.813l-42.93,44.5l45.333,110.559c-16.671,11.322-20.21,28.006-17.197,48.16
		c0.781,5.222,2.725,9.83,5.485,14.007c2.839,4.298,1.919,9.893-2.03,13.198c-3.26,2.728-4.165,6.688-4.17,13.728
		c-0.006,7.498-0.035,14.997-0.014,22.495c0.021,7.548,3.52,12.43,10.718,14.916c13.707,4.735,27.88,5.526,42.236,5.182
		c11.942-0.286,23.308-2.609,34.06-7.939c26.875-13.322,31.702-46.975,18.018-67.792c-0.319-0.485-0.656-0.954-1.006-1.407
		c-4.023-5.206,0.115-12.652,6.66-11.991c0.056,0.006,0.111,0.011,0.167,0.017c3.403,0.333,4.125,1.332,4.098,4.426
		c-0.124,13.995-0.429,28.005,0.041,41.986c0.585,17.441,10.102,34.469,28.762,40.042c14.621,4.366,29.503,4.052,44.096-0.18
		c9.275-2.69,12.163-7.323,12.163-16.855c0-0.021,0-0.042,0-0.063c0-2.566,3.137-3.833,4.905-1.973
		c8.694,9.154,18.311,15.279,29.969,18.723c11.263,3.327,22.666,3.267,34.089,2.869c17.363-0.604,32.634-6.78,45.387-18.774
		c2.155-2.027,4.121-4.177,5.921-6.438c3.879-4.872,11.712-2.185,11.73,4.042c0.003,1.18,0.007,2.359,0.012,3.539
		c0.037,9.594,5.22,14.592,14.711,14.618c10.331,0.028,20.662-0.218,30.993-0.218H630v0.428c9,0.068,18.731,0.039,28.214,0.013
		c6.828-0.019,11.026-1.98,13.234-6.22c2.053,3.811,5.714,6.06,10.749,6.161c11.658,0.235,23.297,0.189,34.958,0.009
		c6.448-0.099,10.058-3.474,12.199-9.756c0.084-0.248,0.157-0.496,0.22-0.744c0.833-3.289,5.083-4.122,6.926-1.273
		c1.191,1.842,2.346,3.65,3.479,5.473c3.451,5.557,8.681,6.261,16.072,5.891c11.185-0.56,23.014-0.624,34.86,0.237
		c4.71,0.342,8.706-1.763,13.459-0.378c15.551,4.535,31.463,4.428,47.345,2.498c12.236-1.487,23.42-5.785,32.925-14.07
		C896.766,841.697,900.137,828.189,899.296,812.756z M221.754,485.227c0.331,1.098,0.531,1.755-0.178-0.603
		c-0.251-0.829-0.386-1.276-0.444-1.465c-14.62-48.269-28.448-91.843-16.151-142.78c11.033-45.705,41.306-85.904,84.396-105.965
		c46.729-21.756,112.32-21.641,156.533,6.253c32.917,20.554,51.084,45.015,58.029,82.89c0.671,3.657-1.462,7.267-5.014,8.364
		c-8.575,2.649-22.093,8.568-17.572,13.085c1.54,1.538,9.78-3.453,11.801-3.81c11.855-2.093,11.275,2.138,12.333,11.117
		c0.063,0.532,0.194,1.055,0.371,1.56c1.992,5.679,3.013,12.357,4.17,18.212c3.693,18.979-5.54,34.09-8.393,52.518
		c-5.306,34.273-15.762,64.809-27.805,97.246c-6.079,16.374-9.537,26.843-25.37,34.796c-16.145,8.109-24.09,13.806-44.285,6.971
		c-30.844-10.439-52.4-34.884-77.436-54.165c-3.953-3.044-8.268-5.065-13.162-6.051c-3.237-0.652-13.039,2.56-5.74,4.889
		c17.593,5.61,26.623,15.33,40.237,27.619c14.714,13.283,31.271,25.59,49.855,32.952c3.549,1.406,5.507,5.287,4.358,8.927
		c-5.439,17.235-0.63,36.476-8.161,51.972c-8.041,16.545-16.507,32.226-27.338,46.906c-2.596,3.519-7.66,4.009-10.888,1.06
		c-12.916-11.797-26.919-21.602-44.3-25.692c-20.814-4.897-31.089-14.438-44.888-29.686c-12.612-13.936-28.39-28.014-35.596-45.613
		c-0.141-0.345-0.26-0.697-0.353-1.058c-3.138-12.21,0.304-27.289-0.035-39.753C230.277,518.444,226.739,501.916,221.754,485.227z
		 M226.685,737.561l0.71,1.732C225.258,739.586,225.455,738.788,226.685,737.561z M290.677,843.21
		c-8.156,5.373-17.207,7.873-26.692,8.926c-13.715,1.524-27.234,0.249-40.516-3.627c-3.103-0.905-4.615-2.165-4.444-5.8
		c0.352-7.472,0.106-14.972,0.106-22.554c2.583-0.444,4.162,1.336,6.014,2.188c11.712,5.382,23.727,8.783,36.73,5.867
		c2.078-0.466,4.215-1.18,6.016-2.282c5.231-3.201,5.511-8.921,0.721-12.812c-3.83-3.111-8.498-4.502-13.106-5.919
		c-5.891-1.812-11.641-3.966-17.226-6.572c-12.745-5.945-19.515-15.795-19.08-29.997c0.434-14.128,7.834-23.741,20.523-29.27
		c16.922-7.374,34.351-6.249,51.975-2.862c5.41,1.04,6.81,3.487,6.42,8.633c-0.472,6.219-0.112,12.5-0.112,19.426
		c-7.532-3.796-14.813-5.883-22.421-6.904c-5.381-0.722-10.625-0.416-15.74,1.446c-3.105,1.13-5.659,2.824-6.194,6.45
		c-0.556,3.771,1.242,6.37,4.154,8.423c3.732,2.631,8.055,3.933,12.304,5.352c6.158,2.058,12.145,4.465,17.993,7.313
		C310.781,799.682,309.25,830.975,290.677,843.21z M286.753,653.253c1.964,1.041,3.987,1.924,6.005,2.629
		c3.833,1.378,7.672,2.334,11.389,3.188c3.708,0.857,7.382,1.643,10.765,2.613l1.254,0.361l1.348,0.432
		c0.799,0.233,1.639,0.593,2.457,0.881c0.829,0.286,1.638,0.638,2.445,0.993c0.811,0.344,1.621,0.691,2.409,1.1
		c6.391,3.053,12.305,7.277,17.931,11.947c3.71,3.091,7.286,6.418,10.833,9.833c-16.511,4.478-25.773,10.118-30.768,14.315
		C314.27,689.979,301.012,672.13,286.753,653.253z M367.927,769.132c0.206,13.322,0.04,26.649,0.09,39.974
		c0.057,15.211,8.311,20.755,22.535,15.219c0.588-0.229,1.232-0.316,2.314-0.584c0,7.76-0.069,15.207,0.043,22.651
		c0.033,2.189-1.252,2.985-2.887,3.458c-13.805,3.992-27.638,4.97-40.785-1.892c-10.501-5.48-14.466-15.56-14.899-26.62
		c-0.638-16.299-0.281-32.637-0.329-48.959c-0.024-8.208-0.005-8.208-8.013-8.199c-9.989,0.012-9.989,0.012-9.991-9.774
		c-0.001-3.831,0.193-7.675-0.065-11.489c-0.142-2.097,0.158-3.495,1.294-4.158c0.633-0.109,1.252-0.26,1.86-0.44
		c0.359-0.009,0.752,0.006,1.185,0.051c2.802,0.29,5.706-0.274,8.478,0.131c4.688,0.684,5.624-1.367,5.33-5.553
		c-0.35-4.972,0.024-9.991-0.129-14.983c-0.076-2.495,0.499-3.873,3.202-4.598c8.83-2.367,17.623-4.898,26.336-7.661
		c3.872-1.228,4.733-0.231,4.597,3.667c-0.289,8.318,0.069,16.658-0.165,24.979c-0.094,3.347,1.016,4.259,4.221,4.129
		c5.654-0.229,11.326,0.049,16.986-0.096c2.714-0.07,3.885,0.663,3.791,3.626c-0.194,6.156-0.161,12.327,0.011,18.485
		c0.079,2.823-0.88,3.819-3.71,3.731c-5.491-0.169-11.013,0.24-16.482-0.152C368.584,763.777,367.87,765.406,367.927,769.132z
		 M371.982,687.29c4.98-7.444,10.004-15.999,14.569-24.27c1.085-1.732,2.173-3.462,3.221-5.217c1.439-2.424,2.845-4.868,4.213-7.333
		c1.362-2.468,2.689-4.956,3.978-7.463l1.912-3.805l1.817-3.762c0.282-0.588,0.56-1.177,0.836-1.778
		c6.79,9.025,7.794,21.458,7.794,31.795c0,13.914,1.665,38.63,2.986,56.043C405.133,709.66,391.589,694.723,371.982,687.29z
		 M526.408,804.941c-5.254,31.151-26.662,47.79-62.497,47.809c-16.949-0.234-34.499-5.638-46.67-22.674
		c-7.882-11.033-10.337-23.709-10.026-36.895c0.533-22.586,9.05-40.798,30.349-51.023c13.621-6.54,28.169-7.503,42.942-5.405
		C514.186,741.537,532.38,769.531,526.408,804.941z M684.176,471.851l185.058-81.31l5.261,81.31l-13.299-66.803L684.176,471.851z
		 M653.743,850.259c-8.319-0.274-16.663-0.317-24.977,0.015c-4.126,0.165-4.873-1.355-4.838-5.096
		c0.174-18.82,0.043-37.642,0.109-56.463c0.013-3.691-0.366-7.309-1.067-10.91c-1.828-9.39-6.691-14.589-14.485-15.513
		c-9.123-1.082-16.664,3.239-20.573,11.673c-2.093,4.516-2.415,9.292-2.413,14.146c0.007,18.822-0.105,37.645,0.088,56.464
		c0.043,4.152-0.743,5.94-5.419,5.709c-8.308-0.411-16.652-0.219-24.978-0.069c-2.867,0.052-4.128-0.54-4.118-3.791
		c0.106-34.811,0.099-69.623,0.016-104.434c-0.007-2.949,1.097-3.647,3.807-3.609c8.992,0.126,17.99,0.153,26.981-0.012
		c2.906-0.053,3.796,0.972,3.681,3.744c-0.169,4.065-0.044,8.143-0.044,12.465c2.21-0.755,2.629-2.336,3.515-3.443
		c11.002-13.755,30.344-19.124,46.866-12.95c13.495,5.043,18.773,16.073,21.068,29.163c0.63,3.593,0.983,7.281,0.997,10.927
		c0.092,22.485-0.016,44.972,0.125,67.457C658.105,849.097,657.387,850.38,653.743,850.259z M620.214,710.852l120.315-194.76
		l10.989,6.789L620.214,710.852z M765.312,850.379c-11.478,1.483-17.966-2.838-23.421-12.904
		C734.174,823.234,725,809.967,715,796.478v15.672c0,10.998-0.274,22.001,0.05,32.989c0.13,4.389-1.513,5.263-5.479,5.116
		c-7.654-0.284-15.339-0.355-22.985,0.029c-4.721,0.237-6.213-1.042-6.179-5.99c0.226-33.158,0.12-66.317,0.119-99.476
		c0-18.163,0.079-36.326-0.063-54.487c-0.028-3.638,0.624-5.322,4.848-5.138c8.316,0.363,16.681,0.312,25.002,0.014
		c3.79-0.136,4.735,1.009,4.717,4.723c-0.152,31.159-0.03,62.318-0.03,93.478v4.87c0,0.074,0.594,0.148,0.921,0.222
		c9.899-15.376,19.824-30.698,29.557-46.178c1.826-2.904,3.726-4.04,7.155-3.977c11.621,0.213,23.25,0.081,34.851,0.081
		c0.646,2.385-1.132,3.331-2.03,4.523c-11.208,14.876-22.423,29.749-33.859,44.45c-2.153,2.768-2.061,4.436-0.02,7.218
		c12.003,16.363,23.79,32.89,35.586,49.403c1.224,1.714,2.894,3.215,3.49,6.152C782.059,850.171,773.568,849.312,765.312,850.379z
		 M883.954,818.831c-0.638,13.647-10.178,25.178-25.389,29.988c-18.854,5.963-37.733,4.856-56.538-0.539
		c-2.593-0.744-3.688-2.011-3.599-4.929c0.239-7.749,0.081-15.51,0.081-24.127c9.047,4.99,17.653,8.268,26.963,9.6
		c6.224,0.891,12.277,0.513,18.26-1.265c3.699-1.099,6.73-3.004,7.316-7.254c0.633-4.592-2.231-7.082-5.733-9.019
		c-5.126-2.835-10.899-3.989-16.319-6.064c-3.1-1.187-6.221-2.341-9.235-3.724c-15.664-7.186-21.919-16.707-21.134-31.996
		c0.712-13.864,9.395-24.692,24.19-29.723c17.329-5.893,34.747-4.545,52.147-0.193c1.382,0.346,2.458,0.868,2.451,2.6
		c-0.035,7.933-0.015,15.867-0.015,24.32c-11.955-5.414-23.277-8.978-35.624-6.18c-4.167,0.944-8.225,2.438-8.798,7.518
		c-0.589,5.217,2.861,8.003,7.032,9.727c7.209,2.979,14.687,5.322,21.845,8.41C878.606,793.206,884.718,802.504,883.954,818.831z"/>
	<path d="M472.218,762.404c-13.406-1.763-23.45,3.847-27.646,15.941c-3.717,10.713-3.605,21.695-0.113,32.404
		c3.672,11.259,12.171,16.211,25.393,15.646c10.769-0.461,17.791-6.401,20.882-17.439c1.364-4.87,1.65-9.821,1.787-16.38
		c-0.099-1.602-0.178-4.769-0.511-7.909C490.658,771.898,483.496,763.888,472.218,762.404z"/>
	<path d="M384.888,342.568c6.121-5.592,13.108-12.313,20.183-14.774c4.822-2.349,10.587-3.254,15.58-1.296
		c2.833,1.11,5.247,3.055,7.612,4.969c3.331,2.697,6.661,5.394,9.992,8.091c1.231,0.997,3.008-0.251,2.481-1.746
		c-2.511-7.125-7.975-13.171-14.308-17.448c-1.917-1.294-3.946-2.467-6.16-3.138c-4.027-1.22-8.401-0.694-12.428,0.524
		c-11.25,3.403-20.841,12.341-25.447,23.009C381.717,342.324,383.629,343.717,384.888,342.568z"/>
	<path d="M438.848,448.583c12.825-1.951,26.109-0.819,38.419,3.274c-2.23,1.933-4.46,3.866-6.69,5.799
		c5.573-1.914,10.942-4.422,15.985-7.469c2.772-1.675,5.644-3.777,6.479-6.906c0.591-2.214,0.046-4.554-0.498-6.779
		c-6.01-24.559-12.019-49.118-18.029-73.677c-0.993-4.06-2.129-8.368-5.205-11.196c4.972,28.771,10.729,57.406,17.263,85.864
		c0.388,1.69,0.743,3.603-0.215,5.049c-0.842,1.271-2.451,1.771-3.955,2.025c-7.584,1.279-15.191-1.453-22.8-2.573
		C451.992,440.875,442.926,442.063,438.848,448.583z"/>
	<path d="M428.14,352.949c-0.015-0.016-0.031-0.031-0.046-0.047c-4.482-4.507-11.526-5.627-17.77-4.434
		c-5.117,0.978-10.13,3.166-14.091,6.594c-3.662,3.169,2.951,1.934,4.792,1.649c2.098-0.325,4.179-0.752,6.246-1.24
		c1.168-0.276,2.294,0.508,2.482,1.693c0.387,2.429,1.738,5.87,2.318,6.401c0.774,0.709,1.699,1.04,2.686,1.137
		c1.862,0.185,3.945-0.458,5.656-0.945C424.614,362.562,433.249,358.135,428.14,352.949z"/>
	<path d="M490.195,368.193c2.834,1.547,6.3,0.204,7.972-2.283c0.541-0.805,1.716-0.875,2.339-0.131
		c0.359,0.428,0.749,0.83,1.167,1.2c0.999,0.886,2.573,0.067,2.47-1.265c-0.245-3.141-1.17-6.229-2.71-8.978
		c-0.364-0.65-0.782-1.302-1.408-1.706c-0.826-0.534-1.876-0.549-2.858-0.49c-2.812,0.168-5.87,1.119-7.962,2.883
		C485.767,360.321,486.248,366.038,490.195,368.193z"/>
	<path d="M354.156,393.939c10.19,30.904,5.083,65.377,16.019,96.025c7.33,20.541,17.356,38.285,33.796,49.715
		c1.845,1.283,3.943-1.216,2.331-2.782c-7.488-7.274-11.985-14.738-17.26-25.833c-7.886-16.587-10.924-35.014-13.349-53.22
		c-2.679-20.11-4.718-40.313-5.694-60.577c-0.337-6.99-0.564-14.086-2.663-20.763c-2.98-9.477-9.509-17.422-13.419-26.555
		c-8.852-20.68-4.695-35.418-0.411-56.25c0.773-3.76,4.978-14.056,5.81-17.771c0.701-3.127-3.629-4.712-5.105-1.867
		c-4.355,8.393-8.313,16.969-11.401,25.9c-5.791,16.749-8.404,35.013-4.424,52.282C341.729,366.741,349.498,379.812,354.156,393.939
		z"/>
	<path d="M461.168,480.517c-0.009-0.001-0.023,0.002-0.035,0.003C461.176,480.522,461.191,480.516,461.168,480.517z"/>
	<path d="M469.562,479.166c-0.452-0.058-1.078-0.011-1.635,0.026c-0.196,0.012-0.394,0.024-0.594,0.037
		c-0.291,0.05-0.584,0.101-0.879,0.151c-1.03,0.215-1.937,0.504-2.754,0.731c-0.8,0.256-1.521,0.44-2.03,0.496
		c-0.23,0.018-0.442,0.033-0.533-0.01c-0.066-0.001-0.078-0.049-0.107-0.055c-0.002-0.006,0.056-0.019,0.103-0.021
		c-0.041-0.001-0.107-0.009-0.196-0.037l-0.293-0.048c0.043-0.015,0.088-0.034,0.055-0.056l0.013-0.042l0.043-0.029
		c-0.321-0.207-0.615-0.416-0.94-0.625l-0.378-0.231l-0.48-0.247l-0.935-0.449c-0.633-0.29-1.278-0.458-1.929-0.674
		c-2.618-0.669-5.058-0.693-7.214-0.539c-2.163,0.131-4.091,0.418-5.811,0.558c-0.864,0.063-1.657,0.127-2.406,0.121
		c-0.382,0.008-0.709-0.041-1.069-0.05c-0.312-0.018-0.508-0.042-0.787-0.037c-0.4-0.094-0.881-0.248-1.311-0.366
		c-0.051-0.021,0.362,0.16,0.167,0.077l-0.028-0.009l-0.055-0.018l-0.111-0.036l-0.227-0.08c-0.155-0.052-0.314-0.113-0.477-0.182
		c-0.652-0.265-1.352-0.66-2.101-1.07c-0.393-0.213-0.781-0.422-1.164-0.629c-0.377-0.197-0.875-0.467-1.211-0.612
		c-0.902-0.415-1.721-0.703-2.55-0.955c-1.622-0.455-5.061-1.874-5.041,0.82c0.016,2.042,3.345,3.561,4.632,4.657
		c0.338,0.288,0.511,0.483,0.807,0.768c0.284,0.285,0.573,0.574,0.866,0.867c0.619,0.605,1.322,1.262,2.196,1.935
		c0.217,0.167,0.446,0.334,0.688,0.499l0.372,0.24l0.195,0.117l0.098,0.058l0.049,0.029l0.025,0.015
		c-0.168-0.072,0.258,0.115,0.22,0.099c0.174,0.089,0.34,0.178,0.508,0.267c0.472,0.25,0.962,0.466,1.463,0.65
		c0.286,0.105,0.576,0.207,0.854,0.296c0.244,0.078,0.489,0.139,0.739,0.199c0.458,0.111,0.926,0.229,1.375,0.298
		c1.155,0.192,2.3,0.332,3.388,0.359c2.186,0.089,4.211,0,6.013-0.008c1.797,0.026,3.377,0.067,4.539,0.435
		c0.269,0.108,0.58,0.152,0.823,0.274c0.122,0.06,0.249,0.108,0.376,0.157c0.052,0.019,0.154,0.061,0.167,0.058l0.234,0.122
		c0.32,0.167,0.792,0.441,1.443,0.763c0.326,0.16,0.703,0.322,1.131,0.469l0.329,0.107l0.17,0.05l0.324,0.087l0.043,0.008
		l0.344,0.062c0.041,0.009,0.4,0.071,0.676,0.098c0.273,0.028,0.599,0.059,0.827,0.056c0.432-0.011,0.88-0.021,1.268-0.088
		c0.822-0.103,1.492-0.313,2.126-0.524c1.206-0.462,2.088-0.995,2.843-1.436c0.629-0.401,1.24-0.792,1.832-1.17l0.176-0.113
		c0,0,0.088-0.057,0.099-0.064c-0.053,0.013,0.135-0.039-0.117,0.027l0.034-0.016l0.069-0.031l0.543-0.244
		c0.205-0.094,0.326-0.191,0.618-0.295c1.354-0.552,4.183-1.004,4.531-2.549c0.12-0.535-0.057-1.201-0.695-2.046
		C473.072,479.466,470.859,479.255,469.562,479.166z"/>
	<path d="M460.81,480.308c0.02,0.013,0.04,0.026,0.06,0.039c0.021,0.013,0.033,0.022,0.049,0.033l0.104,0.045l0.001-0.129
		l-0.004-0.172h-0.001c-0.513,0-0.13,0.142-0.239,0.112L460.81,480.308z"/>
	<path d="M470.408,490.051c-8.021,1.238-16.251,6.643-24.156,4.348c-5.379-1.561-9.213-6.375-14.366-8.569
		c-1.829-0.779-3.804-1.2-5.79-1.259c-2.171-0.064-3.24,2.639-1.647,4.116c1.898,1.76,3.704,3.62,5.407,5.57
		c1.263,1.446,2.472,2.944,3.85,4.282c7.169,6.961,18.945,8.616,27.755,3.9c3.984-2.133,7.269-5.347,10.795-8.184
		C474.142,492.736,472.802,489.682,470.408,490.051z"/>
</g>
</svg>
